# xmcd
#
# Track frame offsets: 
#        150
#        9483
#        16810
#        27235
#        35838
#        43518
#        51645
#        70560
#        82730
#
# Disc length: 1279 seconds
#
# Revision: 2
# Processed by: cddbd v1.4PL0 Copyright (c) Steve Scherf et al.
# Submitted via: ExactAudioCopy v0.90b3
#
DISCID=6604fd09
DTITLE=Alabama - ...Like A River
DYEAR=1900
DGENRE=Country
TTITLE0=Flying United
TTITLE1=Busy Body
TTITLE2=Vacancy
TTITLE3=Backslider Blues
TTITLE4=Music Moves Me Like A River
TTITLE5=Tonight Your Maid's Gonna Make The Rounds
TTITLE6=I Wanna Be With You Tonight
TTITLE7=Lovin' You Is Killing Me
TTITLE8=Patches
EXTD=
EXTT0=
EXTT1=
EXTT2=
EXTT3=
EXTT4=
EXTT5=
EXTT6=
EXTT7=
EXTT8=
PLAYORDER=
